<mxfile host="app.diagrams.net" modified="2022-06-22T08:57:41.805Z" agent="5.0 (X11)" etag="AUkHe2uZM9dTry1ztC8Q" version="20.0.1" type="github">
  <diagram id="lumaT_0DTeznz4TohSRw" name="Page-1">
    <mxGraphModel dx="2175" dy="661" grid="1" gridSize="10" guides="1" tooltips="1" connect="1" arrows="1" fold="1" page="1" pageScale="1" pageWidth="850" pageHeight="1100" math="0" shadow="0">
      <root>
        <mxCell id="0" />
        <mxCell id="1" parent="0" />
        <mxCell id="seUhwjpeLJlbgJUmtRtq-3" value="" style="rounded=0;whiteSpace=wrap;html=1;" vertex="1" parent="1">
          <mxGeometry x="-220" y="70" width="1000" height="490" as="geometry" />
        </mxCell>
        <mxCell id="seUhwjpeLJlbgJUmtRtq-5" value="" style="endArrow=classic;html=1;rounded=0;" edge="1" parent="1">
          <mxGeometry width="50" height="50" relative="1" as="geometry">
            <mxPoint x="-310" y="150" as="sourcePoint" />
            <mxPoint x="-220" y="150" as="targetPoint" />
          </mxGeometry>
        </mxCell>
        <mxCell id="seUhwjpeLJlbgJUmtRtq-6" value="" style="endArrow=classic;html=1;rounded=0;" edge="1" parent="1">
          <mxGeometry width="50" height="50" relative="1" as="geometry">
            <mxPoint x="-309" y="190" as="sourcePoint" />
            <mxPoint x="-220" y="190" as="targetPoint" />
          </mxGeometry>
        </mxCell>
        <mxCell id="seUhwjpeLJlbgJUmtRtq-7" value="" style="endArrow=classic;html=1;rounded=0;" edge="1" parent="1">
          <mxGeometry width="50" height="50" relative="1" as="geometry">
            <mxPoint x="-309" y="230" as="sourcePoint" />
            <mxPoint x="-220" y="230" as="targetPoint" />
          </mxGeometry>
        </mxCell>
        <mxCell id="seUhwjpeLJlbgJUmtRtq-8" value="" style="endArrow=classic;html=1;rounded=0;entryX=-0.001;entryY=0.163;entryDx=0;entryDy=0;entryPerimeter=0;" edge="1" parent="1">
          <mxGeometry width="50" height="50" relative="1" as="geometry">
            <mxPoint x="-310" y="111" as="sourcePoint" />
            <mxPoint x="-219.99999999999977" y="111.49999999999989" as="targetPoint" />
          </mxGeometry>
        </mxCell>
        <mxCell id="seUhwjpeLJlbgJUmtRtq-9" value="&lt;div&gt;data_bit_stream_trail_1&lt;/div&gt;" style="text;html=1;strokeColor=none;fillColor=none;align=center;verticalAlign=middle;whiteSpace=wrap;rounded=0;" vertex="1" parent="1">
          <mxGeometry x="-410" y="90" width="60" height="30" as="geometry" />
        </mxCell>
        <mxCell id="seUhwjpeLJlbgJUmtRtq-12" value="&lt;div&gt;data_bit_stream_trail_2&lt;/div&gt;" style="text;html=1;strokeColor=none;fillColor=none;align=center;verticalAlign=middle;whiteSpace=wrap;rounded=0;" vertex="1" parent="1">
          <mxGeometry x="-410" y="130" width="60" height="30" as="geometry" />
        </mxCell>
        <mxCell id="seUhwjpeLJlbgJUmtRtq-13" value="&lt;div&gt;data_bit_stream_trail_3&lt;/div&gt;&lt;div&gt;&lt;br&gt;&lt;/div&gt;" style="text;html=1;strokeColor=none;fillColor=none;align=center;verticalAlign=middle;whiteSpace=wrap;rounded=0;" vertex="1" parent="1">
          <mxGeometry x="-410" y="180" width="60" height="30" as="geometry" />
        </mxCell>
        <mxCell id="seUhwjpeLJlbgJUmtRtq-14" value="&lt;div&gt;data_bit_stream_trail_4&lt;/div&gt;" style="text;html=1;strokeColor=none;fillColor=none;align=center;verticalAlign=middle;whiteSpace=wrap;rounded=0;" vertex="1" parent="1">
          <mxGeometry x="-410" y="210" width="60" height="30" as="geometry" />
        </mxCell>
        <mxCell id="seUhwjpeLJlbgJUmtRtq-21" value="sample_block" style="swimlane;" vertex="1" parent="1">
          <mxGeometry x="-130" y="80" width="210" height="220" as="geometry" />
        </mxCell>
        <mxCell id="seUhwjpeLJlbgJUmtRtq-34" value="valid_sample" style="text;html=1;strokeColor=none;fillColor=none;align=center;verticalAlign=middle;whiteSpace=wrap;rounded=0;" vertex="1" parent="seUhwjpeLJlbgJUmtRtq-21">
          <mxGeometry x="130" y="180" width="80" height="30" as="geometry" />
        </mxCell>
        <mxCell id="seUhwjpeLJlbgJUmtRtq-29" value="data_trail_1" style="text;html=1;strokeColor=none;fillColor=none;align=center;verticalAlign=middle;whiteSpace=wrap;rounded=0;" vertex="1" parent="seUhwjpeLJlbgJUmtRtq-21">
          <mxGeometry x="140" y="30" width="70" height="30" as="geometry" />
        </mxCell>
        <mxCell id="seUhwjpeLJlbgJUmtRtq-22" value="" style="endArrow=classic;html=1;rounded=0;" edge="1" parent="1">
          <mxGeometry width="50" height="50" relative="1" as="geometry">
            <mxPoint x="-220" y="110" as="sourcePoint" />
            <mxPoint x="-130" y="110" as="targetPoint" />
            <Array as="points">
              <mxPoint x="-160" y="110" />
            </Array>
          </mxGeometry>
        </mxCell>
        <mxCell id="seUhwjpeLJlbgJUmtRtq-26" value="" style="endArrow=classic;html=1;rounded=0;" edge="1" parent="1">
          <mxGeometry width="50" height="50" relative="1" as="geometry">
            <mxPoint x="-220" y="150" as="sourcePoint" />
            <mxPoint x="-130" y="150" as="targetPoint" />
          </mxGeometry>
        </mxCell>
        <mxCell id="seUhwjpeLJlbgJUmtRtq-27" value="" style="endArrow=classic;html=1;rounded=0;" edge="1" parent="1">
          <mxGeometry width="50" height="50" relative="1" as="geometry">
            <mxPoint x="-220" y="190" as="sourcePoint" />
            <mxPoint x="-130" y="190" as="targetPoint" />
          </mxGeometry>
        </mxCell>
        <mxCell id="seUhwjpeLJlbgJUmtRtq-28" value="" style="endArrow=classic;html=1;rounded=0;" edge="1" parent="1">
          <mxGeometry width="50" height="50" relative="1" as="geometry">
            <mxPoint x="-220" y="230" as="sourcePoint" />
            <mxPoint x="-130" y="230" as="targetPoint" />
          </mxGeometry>
        </mxCell>
        <mxCell id="seUhwjpeLJlbgJUmtRtq-30" value="data_trail_2" style="text;html=1;strokeColor=none;fillColor=none;align=center;verticalAlign=middle;whiteSpace=wrap;rounded=0;" vertex="1" parent="1">
          <mxGeometry x="10" y="140" width="70" height="30" as="geometry" />
        </mxCell>
        <mxCell id="seUhwjpeLJlbgJUmtRtq-31" value="&lt;div&gt;data_trail_3&lt;/div&gt;" style="text;html=1;strokeColor=none;fillColor=none;align=center;verticalAlign=middle;whiteSpace=wrap;rounded=0;" vertex="1" parent="1">
          <mxGeometry x="10" y="170" width="70" height="30" as="geometry" />
        </mxCell>
        <mxCell id="seUhwjpeLJlbgJUmtRtq-32" value="data_trail_4" style="text;html=1;strokeColor=none;fillColor=none;align=center;verticalAlign=middle;whiteSpace=wrap;rounded=0;" vertex="1" parent="1">
          <mxGeometry x="10" y="200" width="70" height="30" as="geometry" />
        </mxCell>
        <mxCell id="seUhwjpeLJlbgJUmtRtq-33" value="rd_enable" style="text;html=1;strokeColor=none;fillColor=none;align=center;verticalAlign=middle;whiteSpace=wrap;rounded=0;" vertex="1" parent="1">
          <mxGeometry x="10" y="230" width="70" height="30" as="geometry" />
        </mxCell>
        <mxCell id="seUhwjpeLJlbgJUmtRtq-36" value="" style="rounded=0;whiteSpace=wrap;html=1;" vertex="1" parent="1">
          <mxGeometry x="150" y="90" width="560" height="280" as="geometry" />
        </mxCell>
        <mxCell id="seUhwjpeLJlbgJUmtRtq-35" value="collectorn x4" style="swimlane;" vertex="1" parent="1">
          <mxGeometry x="180" y="120" width="200" height="110" as="geometry" />
        </mxCell>
        <mxCell id="seUhwjpeLJlbgJUmtRtq-38" style="edgeStyle=orthogonalEdgeStyle;rounded=0;orthogonalLoop=1;jettySize=auto;html=1;" edge="1" parent="1" source="seUhwjpeLJlbgJUmtRtq-29">
          <mxGeometry relative="1" as="geometry">
            <mxPoint x="180" y="160" as="targetPoint" />
            <Array as="points">
              <mxPoint x="130" y="125" />
              <mxPoint x="130" y="160" />
            </Array>
          </mxGeometry>
        </mxCell>
        <mxCell id="seUhwjpeLJlbgJUmtRtq-40" style="edgeStyle=orthogonalEdgeStyle;rounded=0;orthogonalLoop=1;jettySize=auto;html=1;" edge="1" parent="1" source="seUhwjpeLJlbgJUmtRtq-31">
          <mxGeometry relative="1" as="geometry">
            <mxPoint x="180" y="185" as="targetPoint" />
          </mxGeometry>
        </mxCell>
        <mxCell id="seUhwjpeLJlbgJUmtRtq-39" style="edgeStyle=orthogonalEdgeStyle;rounded=0;orthogonalLoop=1;jettySize=auto;html=1;entryX=0;entryY=0.5;entryDx=0;entryDy=0;" edge="1" parent="1" source="seUhwjpeLJlbgJUmtRtq-30" target="seUhwjpeLJlbgJUmtRtq-35">
          <mxGeometry relative="1" as="geometry">
            <Array as="points">
              <mxPoint x="120" y="155" />
              <mxPoint x="120" y="175" />
            </Array>
          </mxGeometry>
        </mxCell>
        <mxCell id="seUhwjpeLJlbgJUmtRtq-41" style="edgeStyle=orthogonalEdgeStyle;rounded=0;orthogonalLoop=1;jettySize=auto;html=1;entryX=0;entryY=0.75;entryDx=0;entryDy=0;" edge="1" parent="1" source="seUhwjpeLJlbgJUmtRtq-32" target="seUhwjpeLJlbgJUmtRtq-35">
          <mxGeometry relative="1" as="geometry">
            <Array as="points">
              <mxPoint x="130" y="215" />
              <mxPoint x="130" y="203" />
            </Array>
          </mxGeometry>
        </mxCell>
        <mxCell id="seUhwjpeLJlbgJUmtRtq-42" style="edgeStyle=orthogonalEdgeStyle;rounded=0;orthogonalLoop=1;jettySize=auto;html=1;" edge="1" parent="1" source="seUhwjpeLJlbgJUmtRtq-33">
          <mxGeometry relative="1" as="geometry">
            <mxPoint x="180" y="220.0000000000001" as="targetPoint" />
            <Array as="points">
              <mxPoint x="140" y="245" />
              <mxPoint x="140" y="220" />
            </Array>
          </mxGeometry>
        </mxCell>
        <mxCell id="seUhwjpeLJlbgJUmtRtq-43" style="edgeStyle=orthogonalEdgeStyle;rounded=0;orthogonalLoop=1;jettySize=auto;html=1;" edge="1" parent="1" source="seUhwjpeLJlbgJUmtRtq-34" target="seUhwjpeLJlbgJUmtRtq-36">
          <mxGeometry relative="1" as="geometry">
            <Array as="points">
              <mxPoint x="130" y="275" />
              <mxPoint x="130" y="275" />
            </Array>
          </mxGeometry>
        </mxCell>
        <mxCell id="seUhwjpeLJlbgJUmtRtq-44" value="full_sample" style="swimlane;" vertex="1" parent="1">
          <mxGeometry x="430" y="120" width="200" height="110" as="geometry" />
        </mxCell>
        <mxCell id="seUhwjpeLJlbgJUmtRtq-47" style="edgeStyle=orthogonalEdgeStyle;rounded=0;orthogonalLoop=1;jettySize=auto;html=1;" edge="1" parent="1" source="seUhwjpeLJlbgJUmtRtq-45">
          <mxGeometry relative="1" as="geometry">
            <mxPoint x="430" y="165" as="targetPoint" />
          </mxGeometry>
        </mxCell>
        <mxCell id="seUhwjpeLJlbgJUmtRtq-45" value="data_matrix (16x24)" style="text;html=1;strokeColor=none;fillColor=none;align=center;verticalAlign=middle;whiteSpace=wrap;rounded=0;" vertex="1" parent="1">
          <mxGeometry x="260" y="150" width="120" height="30" as="geometry" />
        </mxCell>
        <mxCell id="seUhwjpeLJlbgJUmtRtq-49" style="edgeStyle=orthogonalEdgeStyle;rounded=0;orthogonalLoop=1;jettySize=auto;html=1;" edge="1" parent="1" source="seUhwjpeLJlbgJUmtRtq-48">
          <mxGeometry relative="1" as="geometry">
            <mxPoint x="430" y="194.9999999999999" as="targetPoint" />
          </mxGeometry>
        </mxCell>
        <mxCell id="seUhwjpeLJlbgJUmtRtq-48" value="data_valid" style="text;html=1;strokeColor=none;fillColor=none;align=center;verticalAlign=middle;whiteSpace=wrap;rounded=0;" vertex="1" parent="1">
          <mxGeometry x="300" y="180" width="80" height="30" as="geometry" />
        </mxCell>
      </root>
    </mxGraphModel>
  </diagram>
</mxfile>
